<svg xmlns="http://www.w3.org/2000/svg" viewBox="0 0 64 64" fill="none">
  <defs>
    <linearGradient id="bg" x1="8" y1="8" x2="56" y2="56" gradientUnits="userSpaceOnUse">
      <stop stop-color="#8b5cf6"/>
      <stop offset="1" stop-color="#ec4899"/>
    </linearGradient>
  </defs>
  <rect x="4" y="4" width="56" height="56" rx="18" fill="url(#bg)"/>
  <path d="M20 24c0-4.4 3.6-8 8-8h8c4.4 0 8 3.6 8 8v16c0 4.4-3.6 8-8 8h-8c-4.4 0-8-3.6-8-8V24Z" fill="rgba(255,255,255,0.14)"/>
  <path d="M24 24h8.8c5.6 0 9.2 2.8 9.2 7.8 0 5.2-3.6 8.2-9.2 8.2H30v6h-6V24Zm8.1 11.1c2.4 0 3.9-1.1 3.9-3.2 0-2.1-1.5-3.1-3.9-3.1H30v6.3h2.1Z" fill="white"/>
</svg>
